# xmcd CD database file
#
# Track frame offsets:
#	150
#	16209
#	30891
#	44371
#	60763
#	78389
#	95286
#	109854
#	126208
#	139198
#	153881
#	169565
#
# Disc length: 2444 seconds
#
# Revision: 0
# Processed by: cddbd v1.5.2PL0 Copyright (c) Steve Scherf et al.
# Submitted via: CDex 1.70beta2
#
DISCID=82098a0c
DTITLE=Russell August Stanziale - Hoodlum
DYEAR=2010
DGENRE=Country
TTITLE0=Headlights and Taillights
TTITLE1=No Good News In Dixie
TTITLE2=The Day Before My Baby Bit The Apple
TTITLE3=Curious Girls
TTITLE4=Perfect Plan
TTITLE5=Love Ain't Practical
TTITLE6=Uno, Dos, Tres
TTITLE7=There Goes My Halo
TTITLE8=Cat Caught The Hummingbird
TTITLE9=That's Why The Old Men Cry
TTITLE10=Preacher's a Friend of Mine
TTITLE11=Thin Air
EXTD=YEAR: 2010
EXTT0=
EXTT1=
EXTT2=
EXTT3=
EXTT4=
EXTT5=
EXTT6=
EXTT7=
EXTT8=
EXTT9=
EXTT10=
EXTT11=
PLAYORDER=
